<svg xmlns="http://www.w3.org/2000/svg" xmlns:xlink="http://www.w3.org/1999/xlink" width="63" height="63" viewBox="0 0 63 63">
    <defs>
        <path id="a" d="M0 0h63v63H0z"/>
    </defs>
    <g fill="none" fill-rule="evenodd">
        <mask id="b" fill="#fff">
            <use xlink:href="#a"/>
        </mask>
        <use fill="#DFDFDF" xlink:href="#a"/>
        <g fill="#EFEFEF" mask="url(#b)">
            <path d="M35.746 24c-.08 0-.292.141-.52.249-.148.07-.398.173-.688.259-.356.106-.672.172-1.26.172-.485 0-1.067-.087-1.779-.269-.307-.079-.63-.153-.97-.213a5.48 5.48 0 0 0-.95-.095c-.438 0-.858.05-1.26.146a4.795 4.795 0 0 0-1.319.537v2.381c0 .097.044.141.12.141.05 0 .09-.026.107-.037a3.966 3.966 0 0 1 1.093-.447 5.1 5.1 0 0 1 1.26-.16c.299 0 .61.03.95.09.339.06.66.137.969.211.802.193 1.393.283 1.78.283.407 0 .82-.068 1.26-.202.24-.074.47-.162.688-.267.179-.087.35-.186.511-.297.067-.047.1-.097.1-.182v-2.188c0-.071-.024-.112-.092-.112M35.678 29.102h-5.579c-.933 0-1.683.285-2.25.856-.566.572-.849 1.327-.849 2.268v5.865h2.6V32.73c0-.323.092-.578.28-.766.186-.188.44-.282.76-.282h5.198v-2.419c0-.107-.054-.161-.16-.161"/>
        </g>
    </g>
</svg>
