<svg width="530" height="220" viewBox="0 0 530 220" fill="none" xmlns="http://www.w3.org/2000/svg">
<path fill-rule="evenodd" clip-rule="evenodd" d="M45.1333 80.6379C66.8915 80.6379 88.6557 80.6379 110.413 80.6379C115.853 80.6379 121.293 80.6379 126.734 80.6379C128.74 80.6379 131.769 80.2579 132.813 81.2792C133.364 81.7606 133.149 81.8419 133.453 82.5592C133.56 82.5592 133.666 82.5592 133.774 82.5592C133.666 83.1979 133.56 83.8392 133.453 84.4792C133.453 86.5058 133.453 88.5328 133.453 90.5594C133.453 99.5099 133.856 109.834 133.453 117.759C133.133 117.971 132.813 118.186 132.494 118.4C131.248 119.612 128.802 118.722 126.734 118.718C121.506 118.718 116.28 118.718 111.054 118.718C96.7623 118.718 82.465 118.718 68.1729 118.718C62.5155 118.718 55.1858 117.972 50.5734 119.359C49.6129 119.465 48.653 119.571 47.6937 119.678C45.5343 120.543 44.1071 122.624 42.5734 124.158C41.8265 124.799 41.0795 125.438 40.3338 126.079C39.8863 126.762 40.0005 127.786 39.6931 128.639C39.5869 128.639 39.4795 128.639 39.3734 128.639C39.3734 129.278 39.3734 129.919 39.3734 130.558C38.029 135.177 38.7327 142.493 38.7327 148.158C38.7343 169.927 38.4962 192.522 39.0535 213.759C38.2957 214.199 37.7322 215.115 36.8134 215.359C35.9598 215.253 35.1067 215.146 34.253 215.039C31.5869 215.039 28.9202 215.039 26.2535 215.039C17.827 215.039 9.3994 215.039 0.973402 215.039C0.796202 214.723 0.0134042 214.079 0.0134042 214.079C0.0134042 211.519 0.0134042 208.959 0.0134042 206.398C0.0134042 200.639 0.0134042 194.878 0.0134042 189.119C0.0134042 167.681 0.0134042 146.236 0.0134042 124.8C0.872338 123.798 0.19207 119.679 0.65407 118.078C0.760337 118.078 0.866068 118.078 0.973402 118.078C0.973402 117.439 0.973402 116.798 0.973402 116.158C1.07954 116.158 1.1874 116.158 1.29314 116.158C1.50674 114.986 1.7202 113.812 1.9338 112.639C2.04007 112.639 2.1462 112.639 2.25354 112.639C2.25354 112.319 2.25354 112 2.25354 111.679C2.3598 111.679 2.46713 111.679 2.5734 111.679C2.5734 111.253 2.5734 110.824 2.5734 110.4C2.68007 110.4 2.78687 110.4 2.89314 110.4C2.89314 110.078 2.89314 109.759 2.89314 109.439C3.00047 109.439 3.10674 109.439 3.21287 109.439C3.21287 108.905 3.21287 108.372 3.21287 107.839C3.31967 107.839 3.427 107.839 3.5338 107.839C3.5338 107.624 3.5338 107.412 3.5338 107.2C3.64007 107.2 3.7462 107.2 3.853 107.2C3.853 106.878 3.853 106.559 3.853 106.238C3.9598 106.238 4.0666 106.238 4.1734 106.238C4.1734 105.919 4.1734 105.598 4.1734 105.278C4.38687 105.172 4.59994 105.066 4.8134 104.958C4.9202 104.533 5.02647 104.105 5.1338 103.679C5.45354 103.465 5.7734 103.253 6.0926 103.039C6.20047 102.506 6.3062 101.971 6.4134 101.439C6.62647 101.331 6.83954 101.226 7.053 101.119C7.053 100.905 7.053 100.693 7.053 100.479C7.3734 100.265 7.69367 100.053 8.0134 99.8391C8.0134 99.6244 8.0134 99.4115 8.0134 99.1995C8.227 99.0927 8.44007 98.9859 8.653 98.8782C8.76034 98.4526 8.86714 98.0244 8.97287 97.5979C9.29313 97.3843 9.6134 97.1724 9.93327 96.9578C9.93327 96.7458 9.93327 96.5328 9.93327 96.3192C10.9999 95.3594 12.0666 94.3995 13.1333 93.438C14.1994 92.2646 15.2671 91.0927 16.3338 89.9192C16.7603 89.8124 17.1863 89.7058 17.6134 89.5979C17.8265 89.2791 18.0401 88.9578 18.2535 88.638C18.4671 88.638 18.6801 88.638 18.8931 88.638C19.0005 88.426 19.1067 88.2115 19.2139 87.9995C19.4259 87.9995 19.6395 87.9995 19.853 87.9995C19.9609 87.7859 20.0666 87.5714 20.1729 87.3594C20.8134 87.1458 21.4535 86.9312 22.0937 86.7176C22.3067 86.3995 22.5197 86.0782 22.7333 85.7592C23.2666 85.6526 23.7999 85.5446 24.3333 85.4379C24.4405 85.2259 24.5462 85.0126 24.6541 84.7992C24.8661 84.7992 25.0795 84.7992 25.2931 84.7992C25.2931 84.6912 25.2931 84.5859 25.2931 84.4792C25.7202 84.3726 26.1467 84.2646 26.5734 84.1579C26.5734 84.0526 26.5734 83.9446 26.5734 83.8392C27.3197 83.8392 28.0666 83.8392 28.8129 83.8392C28.8129 83.7326 28.8129 83.6246 28.8129 83.5179C29.2401 83.5179 29.6671 83.5179 30.0926 83.5179C30.0926 83.4126 30.0926 83.3059 30.0926 83.1979C30.3062 83.1979 30.5197 83.1979 30.7333 83.1979C30.7333 83.0926 30.7333 82.9859 30.7333 82.8779C31.1598 82.8779 31.5869 82.8779 32.0134 82.8779C32.0134 82.7712 32.0134 82.6659 32.0134 82.5592C32.3338 82.5592 32.653 82.5592 32.9729 82.5592C32.9729 82.4526 32.9729 82.3459 32.9729 82.2392C33.3999 82.2392 33.827 82.2392 34.253 82.2392C34.253 82.1312 34.253 82.0246 34.253 81.9193C36.3863 81.5979 38.5207 81.2792 40.653 80.9579C42.0145 80.8406 44.3213 81.3406 45.1333 80.6379ZM417.294 36.1592C417.294 36.2646 417.294 36.3726 417.294 36.4792C415.16 36.6913 413.026 36.9059 410.893 37.1192C410.893 37.2259 410.893 37.3326 410.893 37.4379C410.468 37.4379 410.04 37.4379 409.613 37.4379C409.613 37.5446 409.613 37.6526 409.613 37.7592C409.188 37.7592 408.76 37.7592 408.333 37.7592C408.333 37.8646 408.333 37.9726 408.333 38.0792C407.908 38.0792 407.48 38.0792 407.053 38.0792C407.053 38.1846 407.053 38.2912 407.053 38.3992C406.628 38.3992 406.2 38.3992 405.773 38.3992C405.773 38.5059 405.773 38.6113 405.773 38.7193C405.348 38.7193 404.92 38.7193 404.493 38.7193C404.493 38.8246 404.493 38.9312 404.493 39.0392C404.28 39.0392 404.068 39.0392 403.854 39.0392C403.854 39.1459 403.854 39.2526 403.854 39.3579C403.32 39.4659 402.786 39.5712 402.253 39.6792C402.253 39.7859 402.253 39.8926 402.253 39.9979C401.826 39.9979 401.401 39.9979 400.973 39.9979C400.973 40.1046 400.973 40.2126 400.973 40.3192C400.546 40.3192 400.121 40.3192 399.693 40.3192C399.693 40.4259 399.693 40.5326 399.693 40.6393C399.266 40.6393 398.84 40.6393 398.414 40.6393C398.414 40.7446 398.414 40.8512 398.414 40.9579C398.2 40.9579 397.986 40.9579 397.773 40.9579C397.773 41.0659 397.773 41.1726 397.773 41.2792C397.454 41.2792 397.133 41.2792 396.813 41.2792C396.813 41.3846 396.813 41.4912 396.813 41.5979C396.6 41.5979 396.388 41.5979 396.174 41.5979C396.066 41.8126 395.961 42.0259 395.853 42.2379C395.32 42.3459 394.786 42.4526 394.253 42.5579C394.146 42.7726 394.04 42.9859 393.933 43.1992C393.508 43.3046 393.081 43.4126 392.653 43.5179C392.546 43.7326 392.44 43.9459 392.333 44.1592C392.12 44.1592 391.906 44.1592 391.693 44.1592C391.693 44.2646 391.693 44.3726 391.693 44.4792C391.48 44.4792 391.266 44.4792 391.053 44.4792C391.053 44.5859 391.053 44.6912 391.053 44.7979C390.84 44.7979 390.626 44.7979 390.414 44.7979C390.414 44.9046 390.414 45.0126 390.414 45.1192C390.2 45.1192 389.986 45.1192 389.773 45.1192C389.773 45.2259 389.773 45.3326 389.773 45.4379C389.56 45.4379 389.348 45.4379 389.134 45.4379C389.134 45.5446 389.134 45.6526 389.134 45.7592C388.706 45.8646 388.28 45.9726 387.854 46.0792C387.746 46.2912 387.64 46.5059 387.533 46.7193C387.106 46.8246 386.68 46.9312 386.253 47.0392C386.04 47.3579 385.826 47.6792 385.613 47.9979C385.4 47.9979 385.188 47.9979 384.973 47.9979C384.76 48.3192 384.546 48.6392 384.333 48.9579C384.121 48.9579 383.908 48.9579 383.693 48.9579C383.586 49.1726 383.48 49.3846 383.373 49.5992C383.16 49.5992 382.946 49.5992 382.733 49.5992C382.414 50.0259 382.093 50.4526 381.773 50.8779C381.561 50.8779 381.348 50.8779 381.134 50.8779C381.026 51.0926 380.92 51.3046 380.813 51.5179C380.386 51.6246 379.961 51.7326 379.533 51.8392C378.681 52.7979 377.826 53.7592 376.973 54.7193C375.373 56.1059 373.773 57.4912 372.174 58.8779C372.174 59.0926 372.174 59.3046 372.174 59.5179C371.961 59.6246 371.748 59.7326 371.533 59.8392C371.533 60.0526 371.533 60.2646 371.533 60.4792C370.36 61.5446 369.186 62.6126 368.014 63.6792C368.014 63.8926 368.014 64.1059 368.014 64.3192C367.801 64.4259 367.586 64.5326 367.373 64.6379C367.266 65.0659 367.16 65.4913 367.053 65.9193C366.84 66.0259 366.628 66.1312 366.414 66.2379C366.414 66.4526 366.414 66.6659 366.414 66.8779C366.093 67.0926 365.773 67.3059 365.453 67.5179C365.348 67.9446 365.24 68.3726 365.134 68.7992C364.813 69.0126 364.493 69.2259 364.173 69.4379C364.173 69.6526 364.173 69.8659 364.173 70.0779C363.96 70.1846 363.746 70.2912 363.533 70.3992C363.426 70.7193 363.32 71.0392 363.213 71.3592C363.106 71.3592 363.001 71.3592 362.893 71.3592C362.788 71.7859 362.68 72.2112 362.574 72.6379C362.36 72.7446 362.146 72.8526 361.933 72.9579C361.933 73.1726 361.933 73.3846 361.933 73.5979C361.72 73.7059 361.506 73.8126 361.294 73.9193C361.294 74.3459 361.294 74.7713 361.294 75.1992C361.188 75.1992 361.081 75.1992 360.973 75.1992C360.973 75.4126 360.973 75.6246 360.973 75.8392C360.866 75.8392 360.76 75.8392 360.653 75.8392C360.546 76.3726 360.44 76.9046 360.333 77.4379C360.013 77.6526 359.693 77.8659 359.373 78.0779C359.373 78.2912 359.373 78.5059 359.373 78.7193C359.266 78.7193 359.16 78.7193 359.054 78.7193C359.054 78.9313 359.054 79.1459 359.054 79.3592C358.946 79.3592 358.841 79.3592 358.733 79.3592C358.733 79.6792 358.733 79.9992 358.733 80.3192C358.628 80.3192 358.52 80.3192 358.414 80.3192C358.414 80.6379 358.414 80.9579 358.414 81.2792C358.306 81.2792 358.2 81.2792 358.093 81.2792C358.093 81.4912 358.093 81.7059 358.093 81.9193C357.88 82.0246 357.666 82.1312 357.453 82.2392C357.348 82.6659 357.241 83.0926 357.134 83.5179C357.026 83.5179 356.92 83.5179 356.813 83.5179C355.533 88.7448 354.253 93.9724 352.973 99.1995C352.866 101.224 352.76 103.253 352.653 105.278C352.546 105.278 352.44 105.278 352.333 105.278C351.917 106.771 352.354 112.53 352.653 113.598C352.653 114.878 352.653 116.158 352.653 117.439C352.76 117.439 352.866 117.439 352.973 117.439C352.973 118.184 352.973 118.933 352.973 119.678C353.081 119.678 353.188 119.678 353.293 119.678C353.293 120.319 353.293 120.959 353.293 121.598C353.401 121.598 353.506 121.598 353.614 121.598C353.72 122.558 353.826 123.519 353.933 124.479C354.04 124.479 354.146 124.479 354.253 124.479C354.253 125.012 354.253 125.545 354.253 126.079C354.36 126.079 354.468 126.079 354.573 126.079C354.573 126.398 354.573 126.718 354.573 127.039C354.681 127.039 354.786 127.039 354.894 127.039C354.894 127.571 354.894 128.105 354.894 128.639C355 128.639 355.106 128.639 355.213 128.639C355.213 128.853 355.213 129.065 355.213 129.278C355.32 129.278 355.426 129.278 355.533 129.278C355.533 129.706 355.533 130.133 355.533 130.558C355.64 130.558 355.748 130.558 355.853 130.558C355.853 130.878 355.853 131.2 355.853 131.519C355.961 131.519 356.066 131.519 356.173 131.519C356.28 132.586 356.386 133.653 356.493 134.718C356.6 134.718 356.706 134.718 356.813 134.718C356.92 135.253 357.026 135.786 357.134 136.319C357.348 136.426 357.56 136.533 357.773 136.639C357.773 136.853 357.773 137.065 357.773 137.278C357.88 137.278 357.986 137.278 358.093 137.278C358.2 137.706 358.306 138.133 358.414 138.558C358.52 138.558 358.628 138.558 358.733 138.558C358.733 138.878 358.733 139.2 358.733 139.519C358.841 139.519 358.946 139.519 359.054 139.519C359.054 139.838 359.054 140.158 359.054 140.479C359.16 140.479 359.266 140.479 359.373 140.479C359.373 140.693 359.373 140.906 359.373 141.118C359.693 141.331 360.013 141.545 360.333 141.759C360.333 141.972 360.333 142.186 360.333 142.398C360.44 142.398 360.546 142.398 360.653 142.398C360.653 142.612 360.653 142.824 360.653 143.039C360.76 143.039 360.866 143.039 360.973 143.039C360.973 143.359 360.973 143.679 360.973 143.998C361.081 143.998 361.188 143.998 361.294 143.998C361.294 144.319 361.294 144.639 361.294 144.959C361.4 144.959 361.506 144.959 361.613 144.959C361.613 145.172 361.613 145.384 361.613 145.598C361.826 145.706 362.04 145.812 362.253 145.919C362.253 146.133 362.253 146.346 362.253 146.558C362.468 146.665 362.68 146.771 362.893 146.878C363.001 147.306 363.106 147.733 363.213 148.158C363.426 148.265 363.64 148.372 363.854 148.479C363.854 148.693 363.854 148.906 363.854 149.119C364.173 149.331 364.493 149.545 364.813 149.759C364.92 150.186 365.026 150.612 365.134 151.039C365.348 151.146 365.56 151.253 365.773 151.359C365.773 151.571 365.773 151.786 365.773 151.998C366.2 152.319 366.628 152.639 367.053 152.958C367.266 153.598 367.48 154.239 367.693 154.878C368.333 155.412 368.973 155.945 369.613 156.479C369.72 156.8 369.826 157.119 369.933 157.438C370.146 157.438 370.36 157.438 370.574 157.438C370.574 157.545 370.574 157.653 370.574 157.759C370.893 157.972 371.213 158.186 371.533 158.398C371.533 158.612 371.533 158.824 371.533 159.039C371.748 159.146 371.961 159.253 372.174 159.359C372.174 159.572 372.174 159.784 372.174 159.998C372.493 160.212 372.813 160.426 373.133 160.639C373.88 161.491 374.626 162.346 375.373 163.2C375.586 163.2 375.801 163.2 376.013 163.2C376.013 163.306 376.013 163.412 376.013 163.519C376.44 163.838 376.866 164.158 377.293 164.479C378.146 165.438 379 166.398 379.854 167.359C380.066 167.359 380.28 167.359 380.493 167.359C380.6 167.572 380.706 167.784 380.813 167.998C381.24 168.105 381.666 168.212 382.093 168.319C382.2 168.533 382.306 168.746 382.414 168.958C382.733 169.066 383.053 169.171 383.373 169.278C383.693 169.706 384.013 170.132 384.333 170.559C384.546 170.559 384.76 170.559 384.973 170.559C385.188 170.878 385.4 171.2 385.613 171.518C385.826 171.518 386.04 171.518 386.253 171.518C386.468 171.838 386.68 172.158 386.893 172.479C387.106 172.479 387.32 172.479 387.533 172.479C387.533 172.586 387.533 172.693 387.533 172.799C387.746 172.799 387.96 172.799 388.173 172.799C388.173 172.906 388.173 173.012 388.173 173.119C388.386 173.119 388.6 173.119 388.813 173.119C388.813 173.224 388.813 173.331 388.813 173.438C389.026 173.438 389.241 173.438 389.453 173.438C389.56 173.653 389.666 173.866 389.773 174.079C389.986 174.079 390.2 174.079 390.414 174.079C390.414 174.186 390.414 174.293 390.414 174.398C390.734 174.398 391.053 174.398 391.373 174.398C391.373 174.505 391.373 174.612 391.373 174.718C391.586 174.718 391.801 174.718 392.014 174.718C392.014 174.824 392.014 174.931 392.014 175.039C392.228 175.039 392.44 175.039 392.653 175.039C392.653 175.146 392.653 175.253 392.653 175.359C392.973 175.466 393.294 175.572 393.613 175.679C393.72 175.891 393.826 176.105 393.933 176.319C394.36 176.426 394.786 176.533 395.213 176.639C395.213 176.746 395.213 176.853 395.213 176.958C395.64 177.066 396.066 177.171 396.493 177.278C396.493 177.384 396.493 177.491 396.493 177.598C396.813 177.598 397.133 177.598 397.454 177.598C397.56 177.812 397.666 178.026 397.773 178.239C397.986 178.239 398.2 178.239 398.414 178.239C398.414 178.345 398.414 178.451 398.414 178.559C399.693 178.771 400.973 178.986 402.253 179.2C402.253 179.306 402.253 179.412 402.253 179.519C402.893 179.626 403.533 179.733 404.173 179.838C404.173 179.945 404.173 180.051 404.173 180.158C404.386 180.158 404.6 180.158 404.813 180.158C404.813 180.265 404.813 180.372 404.813 180.479C405.24 180.479 405.666 180.479 406.093 180.479C406.093 180.586 406.093 180.693 406.093 180.799C406.414 180.799 406.733 180.799 407.053 180.799C407.053 180.905 407.053 181.012 407.053 181.119C407.48 181.119 407.908 181.119 408.333 181.119C408.333 181.224 408.333 181.331 408.333 181.438C408.76 181.438 409.188 181.438 409.613 181.438C409.613 181.545 409.613 181.653 409.613 181.759C410.146 181.759 410.68 181.759 411.213 181.759C411.213 181.866 411.213 181.972 411.213 182.079C412.386 182.186 413.56 182.293 414.734 182.398C414.734 182.506 414.734 182.612 414.734 182.718C415.693 182.718 416.653 182.718 417.613 182.718C418.822 183.057 425.91 183.495 427.533 183.039C427.533 182.931 427.533 182.824 427.533 182.718C428.6 182.718 429.666 182.718 430.733 182.718C430.733 182.612 430.733 182.506 430.733 182.398C431.906 182.293 433.081 182.186 434.253 182.079C434.253 181.972 434.253 181.866 434.253 181.759C434.788 181.759 435.32 181.759 435.854 181.759C435.854 181.653 435.854 181.545 435.854 181.438C436.706 181.331 437.56 181.224 438.414 181.119C438.414 181.012 438.414 180.905 438.414 180.799C438.734 180.799 439.053 180.799 439.373 180.799C439.373 180.693 439.373 180.586 439.373 180.479C439.801 180.479 440.228 180.479 440.653 180.479C440.653 180.372 440.653 180.265 440.653 180.158C440.866 180.158 441.081 180.158 441.294 180.158C441.294 180.051 441.294 179.945 441.294 179.838C441.933 179.733 442.574 179.626 443.213 179.519C443.213 179.412 443.213 179.306 443.213 179.2C444.493 178.986 445.773 178.771 447.053 178.559C447.053 178.451 447.053 178.345 447.053 178.239C447.266 178.239 447.48 178.239 447.693 178.239C447.8 178.026 447.908 177.812 448.013 177.598C448.333 177.598 448.653 177.598 448.973 177.598C448.973 177.491 448.973 177.384 448.973 177.278C449.401 177.171 449.826 177.066 450.253 176.958C450.253 176.853 450.253 176.746 450.253 176.639C450.68 176.533 451.106 176.426 451.533 176.319C451.64 176.105 451.748 175.891 451.854 175.679C452.173 175.572 452.493 175.466 452.813 175.359C452.813 175.253 452.813 175.146 452.813 175.039C453.026 175.039 453.24 175.039 453.453 175.039C453.453 174.931 453.453 174.824 453.453 174.718C453.666 174.718 453.88 174.718 454.093 174.718C454.093 174.612 454.093 174.505 454.093 174.398C454.414 174.398 454.733 174.398 455.053 174.398C455.053 174.293 455.053 174.186 455.053 174.079C455.266 174.079 455.48 174.079 455.693 174.079C455.801 173.866 455.908 173.653 456.014 173.438C456.653 173.224 457.294 173.012 457.933 172.799C458.04 172.586 458.146 172.372 458.253 172.158C458.466 172.158 458.68 172.158 458.893 172.158C459.213 171.733 459.533 171.306 459.854 170.878C460.066 170.878 460.28 170.878 460.493 170.878C460.6 170.665 460.706 170.451 460.813 170.239C461.026 170.239 461.241 170.239 461.454 170.239C461.88 169.706 462.306 169.171 462.734 168.639C463.16 168.533 463.586 168.426 464.014 168.319C464.226 167.998 464.44 167.679 464.653 167.359C464.866 167.359 465.081 167.359 465.293 167.359C465.506 167.039 465.72 166.718 465.933 166.398C466.146 166.398 466.36 166.398 466.573 166.398C467.106 165.653 467.64 164.905 468.174 164.158C469.666 162.878 471.16 161.598 472.653 160.319C472.653 160.105 472.653 159.891 472.653 159.679C472.973 159.466 473.293 159.253 473.613 159.039C473.613 158.824 473.613 158.612 473.613 158.398C474.468 157.653 475.32 156.906 476.173 156.158C476.281 155.838 476.386 155.519 476.493 155.2C476.813 154.986 477.134 154.771 477.453 154.558C477.453 154.346 477.453 154.133 477.453 153.919C477.666 153.812 477.88 153.706 478.093 153.598C478.2 153.172 478.306 152.746 478.414 152.319C478.628 152.212 478.84 152.105 479.053 151.998C479.053 151.786 479.053 151.571 479.053 151.359C479.266 151.253 479.48 151.146 479.693 151.039C479.693 150.824 479.693 150.612 479.693 150.398C479.906 150.293 480.12 150.186 480.333 150.079C480.546 149.438 480.76 148.799 480.973 148.158C481.4 147.838 481.826 147.519 482.253 147.2C482.468 146.558 482.68 145.919 482.893 145.278C483 145.278 483.106 145.278 483.213 145.278C483.213 145.065 483.213 144.853 483.213 144.639C483.32 144.639 483.426 144.639 483.533 144.639C483.533 144.426 483.533 144.212 483.533 143.998C483.748 143.891 483.961 143.786 484.174 143.679C484.28 143.039 484.386 142.398 484.493 141.759C484.6 141.759 484.706 141.759 484.813 141.759C484.813 141.545 484.813 141.331 484.813 141.118C484.92 141.118 485.026 141.118 485.133 141.118C485.133 140.8 485.133 140.479 485.133 140.158C485.346 140.051 485.56 139.945 485.773 139.838C486.2 138.558 486.626 137.278 487.053 135.998C487.16 135.998 487.266 135.998 487.373 135.998C487.48 135.572 487.586 135.146 487.693 134.718C487.801 134.718 487.908 134.718 488.014 134.718C488.12 134.186 488.226 133.653 488.333 133.118C488.44 133.118 488.546 133.118 488.653 133.118C488.653 132.8 488.653 132.479 488.653 132.158C488.76 132.158 488.866 132.158 488.973 132.158C488.973 131.733 488.973 131.306 488.973 130.878C489.081 130.878 489.188 130.878 489.293 130.878C489.293 130.239 489.293 129.598 489.293 128.959C489.401 128.959 489.506 128.959 489.614 128.959C489.614 128.319 489.614 127.678 489.614 127.039C492.773 116.736 492.897 102.403 489.614 92.1578C489.506 90.7724 489.401 89.3843 489.293 87.9995C488.866 86.7192 488.44 85.4379 488.014 84.1579C487.801 84.0526 487.586 83.9446 487.373 83.8392C487.373 83.5179 487.373 83.1979 487.373 82.8779C487.266 82.8779 487.16 82.8779 487.053 82.8779C487.053 82.6659 487.053 82.4526 487.053 82.2392C486.946 82.2392 486.84 82.2392 486.734 82.2392C486.626 81.5979 486.521 80.9579 486.413 80.3192C486.306 80.3192 486.2 80.3192 486.093 80.3192C486.093 80.1059 486.093 79.8926 486.093 79.6792C485.88 79.5712 485.668 79.4646 485.454 79.3592C485.454 79.1459 485.454 78.9313 485.454 78.7193C485.346 78.7193 485.241 78.7193 485.133 78.7193C485.133 78.5059 485.133 78.2912 485.133 78.0779C485.026 78.0779 484.92 78.0779 484.813 78.0779C484.813 77.8659 484.813 77.6526 484.813 77.4379C484.706 77.4379 484.6 77.4379 484.493 77.4379C484.493 77.1192 484.493 76.7992 484.493 76.4792C484.386 76.4792 484.28 76.4792 484.174 76.4792C484.174 76.1592 484.174 75.8392 484.174 75.5179C484.066 75.5179 483.961 75.5179 483.854 75.5179C483.748 75.0926 483.64 74.6659 483.533 74.2379C483.426 74.2379 483.32 74.2379 483.213 74.2379C483.213 74.0259 483.213 73.8126 483.213 73.5979C483 73.4912 482.786 73.3846 482.574 73.2792C482.468 72.8526 482.36 72.4259 482.253 71.9979C482.04 71.8926 481.826 71.7859 481.613 71.6792C481.613 71.4646 481.613 71.2513 481.613 71.0392C481.294 70.8246 480.973 70.6126 480.653 70.3992C480.441 69.7592 480.228 69.1192 480.014 68.4792C479.801 68.3726 479.586 68.2646 479.373 68.1592C479.373 67.9446 479.373 67.7326 479.373 67.5179C479.053 67.3059 478.734 67.0926 478.414 66.8779C478.2 66.2379 477.986 65.5979 477.773 64.9579C477.453 64.7446 477.134 64.5326 476.813 64.3192C476.706 63.9979 476.6 63.6792 476.493 63.3592C475.64 62.6126 474.788 61.8659 473.933 61.1192C473.933 60.9046 473.933 60.6913 473.933 60.4792C473.613 60.2646 473.293 60.0526 472.973 59.8392C472.973 59.6246 472.973 59.4126 472.973 59.1992C472.653 58.9859 472.333 58.7712 472.013 58.5579C471.266 57.7059 470.52 56.8512 469.773 55.9979C469.56 55.9979 469.348 55.9979 469.134 55.9979C469.134 55.8926 469.134 55.7859 469.134 55.6792C468.706 55.3592 468.28 55.0393 467.853 54.7193C467.748 54.3992 467.64 54.0779 467.533 53.7592C467.426 53.7592 467.32 53.7592 467.213 53.7592C467 53.4379 466.786 53.1192 466.573 52.7979C466.36 52.7979 466.146 52.7979 465.933 52.7979C465.614 52.3726 465.293 51.9446 464.973 51.5179C464.546 51.4126 464.12 51.3046 463.693 51.1992C463.586 50.9859 463.48 50.7712 463.373 50.5579C463.16 50.5579 462.946 50.5579 462.734 50.5579C462.306 50.0259 461.88 49.4912 461.454 48.9579C461.241 48.9579 461.026 48.9579 460.813 48.9579C460.6 48.6392 460.386 48.3192 460.173 47.9979C459.961 47.9979 459.748 47.9979 459.533 47.9979C459.32 47.6792 459.106 47.3579 458.893 47.0392C458.466 46.9312 458.04 46.8246 457.613 46.7193C457.508 46.5059 457.4 46.2912 457.294 46.0792C456.973 46.0792 456.653 46.0792 456.333 46.0792C456.228 45.8646 456.12 45.6526 456.014 45.4379C455.801 45.4379 455.586 45.4379 455.373 45.4379C455.373 45.3326 455.373 45.2259 455.373 45.1192C455.16 45.1192 454.946 45.1192 454.733 45.1192C454.733 45.0126 454.733 44.9046 454.733 44.7979C454.521 44.7979 454.306 44.7979 454.093 44.7979C454.093 44.6912 454.093 44.5859 454.093 44.4792C453.88 44.4792 453.666 44.4792 453.453 44.4792C453.453 44.3726 453.453 44.2646 453.453 44.1592C453.24 44.1592 453.026 44.1592 452.813 44.1592C452.706 43.9459 452.6 43.7326 452.493 43.5179C452.281 43.5179 452.068 43.5179 451.854 43.5179C451.748 43.3046 451.64 43.0926 451.533 42.8779C451.32 42.8779 451.106 42.8779 450.893 42.8779C450.893 42.7726 450.893 42.6659 450.893 42.5579C450.681 42.5579 450.468 42.5579 450.253 42.5579C450.253 42.4526 450.253 42.3459 450.253 42.2379C450.04 42.2379 449.826 42.2379 449.613 42.2379C449.613 42.1312 449.613 42.0259 449.613 41.9193C449.401 41.9193 449.188 41.9193 448.973 41.9193C448.973 41.8126 448.973 41.7059 448.973 41.5979C448.76 41.5979 448.546 41.5979 448.334 41.5979C448.334 41.4912 448.334 41.3846 448.334 41.2792C447.908 41.1726 447.48 41.0659 447.053 40.9579C447.053 40.8512 447.053 40.7446 447.053 40.6393C445.773 40.4259 444.493 40.2112 443.213 39.9979C443.213 39.8926 443.213 39.7859 443.213 39.6792C442.894 39.6792 442.573 39.6792 442.253 39.6792C442.253 39.5712 442.253 39.4659 442.253 39.3579C442.04 39.3579 441.826 39.3579 441.613 39.3579C441.613 39.2526 441.613 39.1459 441.613 39.0392C441.294 39.0392 440.973 39.0392 440.653 39.0392C440.653 38.9312 440.653 38.8246 440.653 38.7193C440.333 38.7193 440.014 38.7193 439.693 38.7193C439.693 38.6113 439.693 38.5059 439.693 38.3992C439.266 38.3992 438.84 38.3992 438.414 38.3992C438.414 38.2912 438.414 38.1846 438.414 38.0792C437.986 38.0792 437.56 38.0792 437.134 38.0792C437.134 37.9726 437.134 37.8646 437.134 37.7592C436.706 37.7592 436.28 37.7592 435.854 37.7592C435.854 37.6526 435.854 37.5446 435.854 37.4379C435.32 37.4379 434.788 37.4379 434.253 37.4379C434.253 37.3326 434.253 37.2259 434.253 37.1192C433.721 37.1192 433.186 37.1192 432.653 37.1192C432.653 37.0126 432.653 36.9059 432.653 36.7979C432.014 36.7979 431.373 36.7979 430.733 36.7979C430.733 36.6912 430.733 36.5859 430.733 36.4792C429.88 36.4792 429.026 36.4792 428.173 36.4792C428.173 36.3726 428.173 36.2646 428.173 36.1592C424.546 36.1592 420.92 36.1592 417.294 36.1592ZM130.893 4.15791C131.64 4.15791 132.386 4.15791 133.133 4.15791C133.24 4.47925 133.346 4.79791 133.453 5.11925C133.77 5.48592 133.453 12.0139 133.453 13.7592C133.453 22.2419 133.676 31.8739 133.453 39.3579C133.133 39.5712 132.813 39.7859 132.494 39.9979C132.494 40.1046 132.494 40.2126 132.494 40.3192C132.066 40.4259 131.64 40.5326 131.214 40.6393C131.106 40.8513 131 41.0659 130.893 41.2792C130.68 41.2792 130.468 41.2792 130.253 41.2792C130.04 41.5979 129.826 41.9193 129.613 42.2379C129.4 42.2379 129.186 42.2379 128.973 42.2379C128.866 42.4526 128.76 42.6659 128.653 42.8779C128.014 43.0926 127.373 43.3046 126.734 43.5179C126.626 43.7326 126.521 43.9459 126.413 44.1592C125.986 44.2646 125.56 44.3726 125.133 44.4792C125.133 44.5859 125.133 44.6912 125.133 44.7979C124.706 44.9046 124.28 45.0126 123.854 45.1192C123.854 45.2259 123.854 45.3326 123.854 45.4379C123.533 45.4379 123.213 45.4379 122.893 45.4379C122.893 45.5446 122.893 45.6526 122.893 45.7592C122.68 45.7592 122.466 45.7592 122.253 45.7592C122.253 45.8646 122.253 45.9726 122.253 46.0792C121.933 46.0792 121.613 46.0792 121.293 46.0792C121.293 46.1846 121.293 46.2912 121.293 46.3992C120.866 46.3992 120.44 46.3992 120.013 46.3992C120.013 46.5059 120.013 46.6113 120.013 46.7193C119.48 46.8246 118.946 46.9312 118.414 47.0392C118.414 47.1459 118.414 47.2526 118.414 47.3579C117.986 47.4659 117.56 47.5712 117.134 47.6792C117.134 47.7859 117.134 47.8926 117.134 47.9979C116.813 47.9979 116.493 47.9979 116.173 47.9979C116.173 48.1059 116.173 48.2112 116.173 48.3192C115.96 48.3192 115.746 48.3192 115.533 48.3192C115.533 48.4259 115.533 48.5326 115.533 48.6393C115.106 48.6393 114.68 48.6393 114.253 48.6393C114.253 48.7446 114.253 48.8526 114.253 48.9579C113.934 48.9579 113.613 48.9579 113.293 48.9579C113.293 49.0659 113.293 49.1726 113.293 49.2792C112.973 49.2792 112.654 49.2792 112.333 49.2792C112.333 49.3846 112.333 49.4912 112.333 49.5992C112.013 49.5992 111.693 49.5992 111.373 49.5992C111.373 49.7059 111.373 49.8126 111.373 49.9193C110.093 50.1313 108.813 50.3459 107.533 50.5579C107.533 50.6659 107.533 50.7726 107.533 50.8779C104.866 50.9859 102.2 51.0926 99.533 51.1992C98.4343 51.5072 92.4157 51.9419 90.893 51.5179C90.893 51.4126 90.893 51.3046 90.893 51.1992C89.3997 51.1992 87.9063 51.1992 86.4129 51.1992C86.4129 51.0926 86.4129 50.9859 86.4129 50.8779C84.3869 50.7726 82.3598 50.6659 80.3338 50.5579C80.3338 50.4526 80.3338 50.3459 80.3338 50.2379C79.8005 50.2379 79.2666 50.2379 78.7333 50.2379C78.7333 50.1312 78.7333 50.0259 78.7333 49.9193C78.3067 49.9193 77.8795 49.9193 77.4535 49.9193C77.4535 49.8126 77.4535 49.7059 77.4535 49.5992C77.0265 49.5992 76.5999 49.5992 76.1734 49.5992C76.1734 49.4912 76.1734 49.3846 76.1734 49.2792C75.6401 49.2792 75.1071 49.2792 74.5734 49.2792C74.5734 49.1726 74.5734 49.0659 74.5734 48.9579C74.0401 48.9579 73.5067 48.9579 72.9734 48.9579C72.9734 48.8526 72.9734 48.7446 72.9734 48.6393C72.5462 48.6393 72.1191 48.6393 71.6937 48.6393C71.6937 48.5326 71.6937 48.4259 71.6937 48.3192C70.8401 48.2112 69.9863 48.1059 69.1333 47.9979C69.1333 47.8926 69.1333 47.7859 69.1333 47.6792C68.8134 47.6792 68.4931 47.6792 68.1729 47.6792C68.1729 47.5712 68.1729 47.4659 68.1729 47.3579C67.7467 47.3579 67.3197 47.3579 66.8931 47.3579C66.8931 47.2526 66.8931 47.1459 66.8931 47.0392C66.4671 47.0392 66.0401 47.0392 65.6129 47.0392C65.6129 46.9312 65.6129 46.8246 65.6129 46.7193C64.7603 46.6113 63.9067 46.5059 63.0535 46.3992C63.0535 46.2912 63.0535 46.1846 63.0535 46.0792C61.6671 45.9726 60.2801 45.8646 58.8937 45.7592C56.3442 45.0312 53.1238 44.5846 50.5734 43.8392C49.8265 43.8392 49.0795 43.8392 48.3333 43.8392C48.3333 43.7326 48.3333 43.6246 48.3333 43.5179C47.6937 43.5179 47.053 43.5179 46.4134 43.5179C46.4134 43.4126 46.4134 43.3046 46.4134 43.1992C45.3467 43.1992 44.2801 43.1992 43.2139 43.1992C43.2139 43.0926 43.2139 42.9859 43.2139 42.8779C41.389 42.3699 35.7213 42.9552 34.253 43.1992C32.4405 43.3046 30.6265 43.4126 28.8129 43.5179C26.4858 44.2059 23.403 44.7392 21.1333 45.4379C19.4275 45.6526 17.7202 45.8646 16.0134 46.0792C16.0134 46.1846 16.0134 46.2912 16.0134 46.3992C15.8005 46.3992 15.5869 46.3992 15.3734 46.3992C15.3734 46.5059 15.3734 46.6113 15.3734 46.7193C14.9462 46.7193 14.5207 46.7193 14.0937 46.7193C14.0937 46.8246 14.0937 46.9312 14.0937 47.0392C13.4535 47.2513 12.8134 47.4659 12.1734 47.6792C12.1734 47.7859 12.1734 47.8926 12.1734 47.9979C11.9598 47.9979 11.7462 47.9979 11.5327 47.9979C11.5327 48.1059 11.5327 48.2112 11.5327 48.3192C11.3197 48.3192 11.1071 48.3192 10.8937 48.3192C10.8937 48.4259 10.8937 48.5326 10.8937 48.6393C10.253 48.7446 9.6134 48.8526 8.97287 48.9579C8.97287 49.0659 8.97287 49.1726 8.97287 49.2792C8.76033 49.2792 8.5462 49.2792 8.3338 49.2792C8.227 49.4912 8.1202 49.7059 8.0134 49.9193C7.79994 49.9193 7.58634 49.9193 7.3734 49.9193C7.2666 50.1313 7.16034 50.3459 7.053 50.5579C6.4134 50.6659 5.7734 50.7726 5.1338 50.8779C5.1338 50.9859 5.1338 51.0926 5.1338 51.1992C4.70674 51.3046 4.27954 51.4126 3.853 51.5179C3.7462 51.7326 3.64007 51.9459 3.5338 52.1592C2.76914 52.6326 2.09674 52.7272 0.973402 52.7979C0.806202 52.5086 0.0134042 51.8392 0.0134042 51.8392C0.0134042 50.4526 0.0134042 49.0646 0.0134042 47.6792C0.312338 47.2939 0.0134042 41.0992 0.0134042 39.3579C0.0134042 34.4526 0.0134042 29.5446 0.0134042 24.6393C0.0134042 21.6659 -0.100064 18.1526 0.333269 15.6792C0.730069 15.4646 0.775402 15.1699 0.973402 15.0393C1.1874 15.0393 1.3994 15.0393 1.61287 15.0393C1.7202 14.8259 1.82647 14.6113 1.9338 14.3992C2.1462 14.3992 2.3598 14.3992 2.5734 14.3992C2.68007 14.1846 2.78687 13.9726 2.89314 13.7592C3.10674 13.7592 3.31967 13.7592 3.5338 13.7592C3.64007 13.5446 3.7462 13.3326 3.853 13.1192C4.1734 13.1192 4.49314 13.1192 4.8134 13.1192C4.9202 12.9046 5.02647 12.6926 5.1338 12.4792C5.66714 12.3726 6.20047 12.2646 6.73327 12.1579C6.73327 12.0512 6.73327 11.9459 6.73327 11.8392C6.94674 11.8392 7.16034 11.8392 7.3734 11.8392C7.48007 11.6246 7.58634 11.4113 7.69367 11.1992C8.0134 11.1992 8.3338 11.1992 8.653 11.1992C8.653 11.0926 8.653 10.9859 8.653 10.8779C9.08007 10.7726 9.50673 10.6646 9.93327 10.5592C9.93327 10.4526 9.93327 10.3459 9.93327 10.2379C11.2129 10.0259 12.4931 9.81258 13.7738 9.59792C13.7738 9.49124 13.7738 9.38593 13.7738 9.27925C14.0937 9.27925 14.4129 9.27925 14.7343 9.27925C14.7343 9.17258 14.7343 9.0659 14.7343 8.9579C15.0535 8.9579 15.3734 8.9579 15.6931 8.9579C15.6931 8.85123 15.6931 8.74458 15.6931 8.63925C16.0134 8.63925 16.3338 8.63925 16.653 8.63925C16.653 8.53258 16.653 8.42592 16.653 8.31924C17.7202 8.10458 18.7869 7.89258 19.853 7.67924C19.853 7.57124 19.853 7.46458 19.853 7.35791C20.9197 7.25258 21.9863 7.14594 23.053 7.03926C23.053 6.93126 23.053 6.82591 23.053 6.71791C23.4801 6.71791 23.9071 6.71791 24.3333 6.71791C24.3333 6.61258 24.3333 6.50592 24.3333 6.39925C26.5734 6.18459 28.8134 5.97125 31.053 5.75925C31.053 5.65257 31.053 5.54459 31.053 5.43925C34.5734 5.33258 38.0937 5.22458 41.6134 5.11925C41.6134 5.22458 41.6134 5.33258 41.6134 5.43925C42.8931 5.43925 44.1729 5.43925 45.4535 5.43925C50.253 6.29126 55.0546 7.14592 59.853 7.99925C59.853 8.10458 59.853 8.21124 59.853 8.31924C60.1734 8.31924 60.4937 8.31924 60.8134 8.31924C60.8134 8.42592 60.8134 8.53258 60.8134 8.63925C61.2405 8.63925 61.6666 8.63925 62.0937 8.63925C62.0937 8.74458 62.0937 8.85123 62.0937 8.9579C62.5207 8.9579 62.9462 8.9579 63.3734 8.9579C63.3734 9.0659 63.3734 9.17258 63.3734 9.27925C63.9067 9.27925 64.4401 9.27925 64.9734 9.27925C64.9734 9.38593 64.9734 9.49124 64.9734 9.59792C65.3999 9.59792 65.8265 9.59792 66.2535 9.59792C66.2535 9.70592 66.2535 9.81259 66.2535 9.91792C67.5338 10.0259 68.8134 10.1326 70.0937 10.2379C70.0937 10.3459 70.0937 10.4526 70.0937 10.5592C70.5197 10.5592 70.9467 10.5592 71.3738 10.5592C71.3738 10.6646 71.3738 10.7726 71.3738 10.8779C71.7999 10.8779 72.227 10.8779 72.653 10.8779C72.653 10.9859 72.653 11.0926 72.653 11.1992C73.1863 11.1992 73.7202 11.1992 74.2535 11.1992C74.2535 11.3059 74.2535 11.4113 74.2535 11.5193C74.6801 11.5193 75.1071 11.5193 75.5327 11.5193C75.5327 11.6246 75.5327 11.7326 75.5327 11.8392C76.0661 11.8392 76.6005 11.8392 77.1338 11.8392C77.1338 11.9459 77.1338 12.0512 77.1338 12.1579C77.4535 12.1579 77.7734 12.1579 78.0937 12.1579C78.0937 12.2646 78.0937 12.3726 78.0937 12.4792C79.2666 12.5859 80.4401 12.6926 81.6134 12.7979C81.6134 12.9046 81.6134 13.0126 81.6134 13.1192C83.853 13.3326 86.0937 13.5446 88.333 13.7592C88.333 13.8659 88.333 13.9726 88.333 14.0792C91.6397 14.1846 94.9463 14.2912 98.253 14.3992C98.253 14.2912 98.253 14.1846 98.253 14.0792C100.6 13.9726 102.946 13.8659 105.293 13.7592C105.293 13.6526 105.293 13.5446 105.293 13.4379C105.933 13.4379 106.573 13.4379 107.213 13.4379C107.213 13.3326 107.213 13.2246 107.213 13.1192C107.748 13.1192 108.28 13.1192 108.813 13.1192C108.813 13.0126 108.813 12.9046 108.813 12.7979C109.56 12.6926 110.306 12.5859 111.054 12.4792C111.054 12.3726 111.054 12.2646 111.054 12.1579C111.373 12.1579 111.693 12.1579 112.013 12.1579C112.013 12.0512 112.013 11.9459 112.013 11.8392C112.441 11.8392 112.866 11.8392 113.293 11.8392C113.293 11.7326 113.293 11.6246 113.293 11.5193C113.506 11.5193 113.721 11.5193 113.934 11.5193C113.934 11.4113 113.934 11.3059 113.934 11.1992C114.36 11.1992 114.786 11.1992 115.213 11.1992C115.213 11.0926 115.213 10.9859 115.213 10.8779C115.426 10.8779 115.64 10.8779 115.853 10.8779C115.853 10.7726 115.853 10.6646 115.853 10.5592C117.134 10.3459 118.414 10.1313 119.693 9.91792C119.693 9.81259 119.693 9.70592 119.693 9.59792C119.906 9.59792 120.12 9.59792 120.333 9.59792C120.333 9.49124 120.333 9.38593 120.333 9.27925C120.653 9.27925 120.973 9.27925 121.293 9.27925C121.293 9.17258 121.293 9.0659 121.293 8.9579C121.613 8.9579 121.933 8.9579 122.253 8.9579C122.253 8.85123 122.253 8.74458 122.253 8.63925C122.68 8.53258 123.108 8.42592 123.533 8.31924C123.533 8.21124 123.533 8.10458 123.533 7.99925C123.746 7.99925 123.96 7.99925 124.173 7.99925C124.28 7.78592 124.388 7.57124 124.493 7.35791C124.706 7.35791 124.92 7.35791 125.133 7.35791C125.133 7.25258 125.133 7.14594 125.133 7.03926C125.346 7.03926 125.56 7.03926 125.774 7.03926C125.774 6.93126 125.774 6.82591 125.774 6.71791C125.986 6.71791 126.2 6.71791 126.413 6.71791C126.413 6.61258 126.413 6.50592 126.413 6.39925C126.626 6.39925 126.84 6.39925 127.054 6.39925C127.054 6.29124 127.054 6.18457 127.054 6.07924C127.268 6.07924 127.48 6.07924 127.693 6.07924C127.801 5.86591 127.906 5.65259 128.013 5.43925C128.226 5.43925 128.44 5.43925 128.653 5.43925C128.653 5.33258 128.653 5.22458 128.653 5.11925C128.866 5.11925 129.081 5.11925 129.293 5.11925C129.293 5.01257 129.293 4.90459 129.293 4.79791C129.826 4.69258 130.36 4.58592 130.893 4.47925C130.893 4.37257 130.893 4.26459 130.893 4.15791ZM183.693 3.51926C184.333 3.51926 184.973 3.51926 185.613 3.51926C185.613 3.62459 185.613 3.73257 185.613 3.83925C194.146 3.83925 202.681 3.83925 211.213 3.83925C213.812 3.83925 219.245 2.98325 220.173 4.47925C220.173 4.69258 220.173 4.90459 220.173 5.11925C220.648 5.66591 220.492 6.97525 220.494 7.99925C220.494 10.4526 220.494 12.9046 220.494 15.3579C220.494 24.9579 220.494 34.5592 220.494 44.1592C220.494 73.4886 220.494 102.829 220.494 132.158C220.494 140.158 220.494 148.159 220.494 156.158C220.493 160.015 219.932 163.29 221.133 166.398C221.133 166.718 221.133 167.039 221.133 167.359C221.346 167.466 221.56 167.572 221.774 167.679C221.986 168.319 222.2 168.959 222.413 169.598C222.626 169.706 222.84 169.812 223.054 169.919C223.054 170.132 223.054 170.346 223.054 170.559C223.16 170.559 223.266 170.559 223.373 170.559C223.373 170.771 223.373 170.986 223.373 171.2C223.906 171.626 224.441 172.051 224.973 172.479C224.973 172.693 224.973 172.906 224.973 173.119C225.293 173.224 225.613 173.331 225.934 173.438C226.146 173.759 226.36 174.079 226.573 174.398C227 174.505 227.426 174.612 227.853 174.718C227.96 174.931 228.066 175.146 228.173 175.359C228.813 175.572 229.453 175.784 230.094 175.998C230.2 176.212 230.306 176.426 230.414 176.639C230.733 176.639 231.053 176.639 231.373 176.639C231.373 176.746 231.373 176.853 231.373 176.958C231.8 176.958 232.226 176.958 232.653 176.958C235.948 178.017 241.196 177.598 245.453 177.598C255.158 177.598 264.868 177.598 274.574 177.598C278.946 177.598 283.32 177.598 287.693 177.598C289.981 177.598 292.964 177.769 294.733 177.278C296.692 176.736 298.306 177.596 298.893 178.559C299.804 179.483 299.213 185.058 299.213 187.519C299.213 193.598 299.213 199.679 299.213 205.759C299.213 208.818 299.61 212.176 299.213 214.399C298.893 214.505 298.574 214.611 298.253 214.718C297.554 215.33 295.337 215.039 294.093 215.039C290.468 215.039 286.84 215.039 283.213 215.039C268.814 215.039 254.412 215.039 240.014 215.039C234.788 215.039 229.56 215.039 224.333 215.039C224.333 214.931 224.333 214.824 224.333 214.718C221.454 214.611 218.573 214.505 215.693 214.399C215.693 214.291 215.693 214.186 215.693 214.079C214.946 213.972 214.2 213.866 213.453 213.759C213.453 213.653 213.453 213.545 213.453 213.438C213.24 213.438 213.026 213.438 212.813 213.438C212.813 213.331 212.813 213.224 212.813 213.118C211.746 212.906 210.68 212.693 209.613 212.479C209.613 212.372 209.613 212.265 209.613 212.158C208.973 211.945 208.333 211.731 207.693 211.519C207.693 211.412 207.693 211.306 207.693 211.199C207.48 211.199 207.266 211.199 207.053 211.199C207.053 211.093 207.053 210.986 207.053 210.878C206.84 210.878 206.628 210.878 206.414 210.878C206.414 210.771 206.414 210.665 206.414 210.558C206.2 210.558 205.986 210.558 205.773 210.558C205.773 210.453 205.773 210.345 205.773 210.239C204.813 209.919 203.853 209.598 202.893 209.278C202.786 209.066 202.68 208.851 202.573 208.639C201.934 208.426 201.293 208.211 200.653 207.998C200.441 207.679 200.226 207.359 200.013 207.039C199.906 207.039 199.8 207.039 199.693 207.039C199.586 206.824 199.48 206.611 199.373 206.398C199.16 206.398 198.946 206.398 198.733 206.398C198.2 205.759 197.666 205.118 197.133 204.479C196.92 204.479 196.706 204.479 196.494 204.479C196.386 204.265 196.28 204.051 196.173 203.838C195.96 203.838 195.748 203.838 195.533 203.838C195.426 203.626 195.32 203.412 195.213 203.2C194.68 202.771 194.146 202.345 193.613 201.919C193.613 201.706 193.613 201.491 193.613 201.278C193.4 201.171 193.186 201.066 192.973 200.959C192.973 200.746 192.973 200.533 192.973 200.319C192.333 199.784 191.693 199.253 191.054 198.718C191.054 198.506 191.054 198.291 191.054 198.079C190.84 197.972 190.626 197.866 190.414 197.759C190.414 197.653 190.414 197.545 190.414 197.438C190.093 197.224 189.773 197.012 189.453 196.799C189.24 196.158 189.026 195.519 188.813 194.878C188.601 194.771 188.388 194.665 188.173 194.558C188.173 194.345 188.173 194.132 188.173 193.919C188.068 193.919 187.96 193.919 187.854 193.919C187.746 193.491 187.64 193.066 187.533 192.639C187.426 192.639 187.321 192.639 187.213 192.639C187.213 192.319 187.213 191.998 187.213 191.679C187.108 191.679 187 191.679 186.893 191.679C186.893 191.466 186.893 191.253 186.893 191.039C186.786 191.039 186.68 191.039 186.573 191.039C186.573 190.824 186.573 190.612 186.573 190.398C186.466 190.398 186.36 190.398 186.253 190.398C186.253 190.186 186.253 189.972 186.253 189.759C186.146 189.759 186.04 189.759 185.933 189.759C185.721 189.119 185.506 188.479 185.293 187.838C185.188 187.838 185.08 187.838 184.973 187.838C184.866 187.2 184.76 186.558 184.653 185.919C184.546 185.919 184.441 185.919 184.333 185.919C184.333 185.598 184.333 185.278 184.333 184.958C184.226 184.958 184.12 184.958 184.013 184.958C184.013 184.746 184.013 184.533 184.013 184.319C183.908 184.319 183.8 184.319 183.693 184.319C183.693 183.998 183.693 183.679 183.693 183.359C183.586 183.359 183.48 183.359 183.374 183.359C183.374 182.931 183.374 182.506 183.374 182.079C183.266 182.079 183.161 182.079 183.053 182.079C182.946 179.733 182.84 177.384 182.733 175.039C182.213 173.181 182.414 170.059 182.414 167.679C182.414 163.2 182.414 158.718 182.414 154.239C182.414 134.081 182.414 113.917 182.414 93.7594C182.414 73.4939 182.414 53.2232 182.414 32.9579C182.414 26.5592 182.414 20.1579 182.414 13.7592C182.414 10.4006 181.944 7.11525 182.414 4.47925C182.864 4.24326 183.381 3.90326 183.693 3.51926ZM501.453 183.679C501.137 184.834 500.22 185.423 499.533 186.239C499.426 186.239 499.32 186.239 499.213 186.239C499.213 186.451 499.213 186.665 499.213 186.878C497.613 188.265 496.013 189.653 494.414 191.039C493.561 191.998 492.706 192.959 491.854 193.919C491.64 193.919 491.426 193.919 491.213 193.919C491.106 194.132 491 194.345 490.894 194.558C490.681 194.558 490.468 194.558 490.253 194.558C490.04 194.878 489.826 195.2 489.614 195.519C488.726 196.153 488.353 195.886 488.014 197.118C487.693 197.224 487.373 197.331 487.053 197.438C487.053 197.545 487.053 197.653 487.053 197.759C486.84 197.759 486.626 197.759 486.413 197.759C486.306 197.972 486.2 198.186 486.093 198.398C485.88 198.398 485.668 198.398 485.454 198.398C485.241 198.718 485.026 199.039 484.813 199.359C484.386 199.466 483.961 199.572 483.533 199.679C483.426 199.891 483.32 200.105 483.213 200.319C483 200.319 482.786 200.319 482.574 200.319C482.253 200.746 481.933 201.171 481.613 201.598C481.4 201.598 481.186 201.598 480.973 201.598C480.866 201.812 480.76 202.026 480.653 202.239C480.228 202.345 479.801 202.453 479.373 202.558C479.053 202.986 478.734 203.412 478.414 203.838C478.093 203.838 477.773 203.838 477.453 203.838C477.453 203.945 477.453 204.051 477.453 204.158C477.24 204.158 477.026 204.158 476.813 204.158C476.813 204.265 476.813 204.372 476.813 204.479C476.6 204.479 476.386 204.479 476.173 204.479C476.173 204.586 476.173 204.693 476.173 204.799C475.748 204.906 475.32 205.012 474.893 205.118C474.893 205.224 474.893 205.331 474.893 205.438C474.574 205.545 474.253 205.653 473.933 205.759C473.826 205.972 473.72 206.186 473.613 206.398C473.188 206.506 472.76 206.611 472.333 206.718C472.226 206.931 472.121 207.146 472.013 207.359C471.8 207.359 471.586 207.359 471.373 207.359C471.266 207.572 471.16 207.784 471.054 207.998C470.521 208.105 469.986 208.211 469.453 208.319C469.453 208.426 469.453 208.533 469.453 208.639C469.241 208.639 469.026 208.639 468.813 208.639C468.813 208.746 468.813 208.853 468.813 208.959C468.386 209.066 467.961 209.171 467.533 209.278C467.533 209.384 467.533 209.491 467.533 209.598C467 209.706 466.468 209.812 465.933 209.919C465.933 210.026 465.933 210.132 465.933 210.239C465.294 210.345 464.653 210.453 464.014 210.558C464.014 210.665 464.014 210.771 464.014 210.878C463.586 210.986 463.16 211.093 462.734 211.199C462.734 211.306 462.734 211.412 462.734 211.519C462.521 211.519 462.306 211.519 462.093 211.519C461.986 211.731 461.88 211.945 461.773 212.158C461.134 212.265 460.493 212.372 459.854 212.479C459.854 212.586 459.854 212.693 459.854 212.799C459.32 212.906 458.786 213.012 458.253 213.118C458.253 213.224 458.253 213.331 458.253 213.438C457.826 213.545 457.4 213.653 456.973 213.759C456.973 213.866 456.973 213.972 456.973 214.079C455.053 214.399 453.134 214.718 451.213 215.039C442.916 217.994 433.826 219.195 422.414 219.199C418.468 219.093 414.52 218.986 410.574 218.878C410.574 218.771 410.574 218.665 410.574 218.558C409.826 218.558 409.081 218.558 408.333 218.558C408.333 218.453 408.333 218.345 408.333 218.239C407.586 218.239 406.84 218.239 406.093 218.239C406.093 218.132 406.093 218.026 406.093 217.919C405.561 217.919 405.026 217.919 404.493 217.919C404.493 217.812 404.493 217.706 404.493 217.598C403.961 217.598 403.426 217.598 402.893 217.598C402.893 217.491 402.893 217.384 402.893 217.278C402.253 217.278 401.613 217.278 400.973 217.278C400.973 217.171 400.973 217.066 400.973 216.959C399.693 216.746 398.414 216.533 397.133 216.319C397.133 216.211 397.133 216.105 397.133 215.998C396.813 215.998 396.493 215.998 396.174 215.998C396.174 215.893 396.174 215.784 396.174 215.678C395.854 215.678 395.533 215.678 395.213 215.678C395.213 215.572 395.213 215.466 395.213 215.359C394.893 215.359 394.574 215.359 394.253 215.359C394.253 215.253 394.253 215.146 394.253 215.039C392.973 214.931 391.693 214.824 390.414 214.718C390.414 214.611 390.414 214.505 390.414 214.399C389.773 214.291 389.134 214.186 388.493 214.079C388.493 213.972 388.493 213.866 388.493 213.759C388.068 213.653 387.64 213.545 387.213 213.438C387.213 213.331 387.213 213.224 387.213 213.118C386.253 212.906 385.294 212.693 384.333 212.479C384.333 212.372 384.333 212.265 384.333 212.158C384.121 212.158 383.908 212.158 383.693 212.158C383.693 212.051 383.693 211.945 383.693 211.838C383.48 211.838 383.266 211.838 383.053 211.838C383.053 211.731 383.053 211.626 383.053 211.519C382.841 211.519 382.628 211.519 382.414 211.519C382.414 211.412 382.414 211.306 382.414 211.199C381.773 210.986 381.134 210.771 380.493 210.558C380.493 210.453 380.493 210.345 380.493 210.239C379.533 210.026 378.573 209.812 377.614 209.598C377.614 209.491 377.614 209.384 377.614 209.278C377.401 209.278 377.188 209.278 376.973 209.278C376.866 209.066 376.76 208.851 376.653 208.639C376.333 208.639 376.013 208.639 375.693 208.639C375.693 208.533 375.693 208.426 375.693 208.319C375.48 208.319 375.266 208.319 375.053 208.319C375.053 208.211 375.053 208.105 375.053 207.998C374.84 207.998 374.626 207.998 374.413 207.998C374.413 207.893 374.413 207.784 374.413 207.679C374.2 207.679 373.986 207.679 373.773 207.679C373.773 207.572 373.773 207.466 373.773 207.359C373.56 207.359 373.346 207.359 373.133 207.359C372.92 207.039 372.706 206.718 372.493 206.398C372.066 206.291 371.64 206.186 371.213 206.079C371.106 205.866 371 205.653 370.893 205.438C370.253 205.224 369.613 205.012 368.973 204.799C368.973 204.693 368.973 204.586 368.973 204.479C368.76 204.479 368.546 204.479 368.333 204.479C368.333 204.372 368.333 204.265 368.333 204.158C368.12 204.158 367.906 204.158 367.693 204.158C367.693 204.051 367.693 203.945 367.693 203.838C367.48 203.838 367.266 203.838 367.053 203.838C367.053 203.731 367.053 203.626 367.053 203.519C366.84 203.519 366.628 203.519 366.414 203.519C366.2 203.2 365.986 202.878 365.773 202.558C365.348 202.453 364.92 202.345 364.493 202.239C364.386 202.026 364.281 201.812 364.173 201.598C363.96 201.598 363.746 201.598 363.533 201.598C363.106 201.066 362.68 200.533 362.253 199.998C361.826 199.891 361.4 199.784 360.973 199.679C360.973 199.572 360.973 199.466 360.973 199.359C360.653 199.253 360.333 199.146 360.013 199.039C359.908 198.824 359.8 198.612 359.693 198.398C359.48 198.398 359.266 198.398 359.054 198.398C358.946 198.186 358.841 197.972 358.733 197.759C358.52 197.759 358.306 197.759 358.093 197.759C357.348 196.906 356.6 196.051 355.853 195.2C355.64 195.2 355.426 195.2 355.213 195.2C355.106 194.986 355 194.771 354.894 194.558C354.681 194.558 354.468 194.558 354.253 194.558C354.04 194.239 353.826 193.919 353.614 193.598C353.401 193.598 353.188 193.598 352.973 193.598C351.693 192.212 350.413 190.824 349.134 189.438C348.813 189.331 348.493 189.224 348.173 189.119C346.68 187.412 345.186 185.706 343.693 183.998C343.053 183.466 342.414 182.931 341.773 182.398C341.773 182.186 341.773 181.972 341.773 181.759C341.453 181.545 341.134 181.331 340.813 181.119C340.813 180.906 340.813 180.693 340.813 180.479C340.493 180.265 340.173 180.051 339.854 179.838C339.854 179.626 339.854 179.412 339.854 179.2C339 178.451 338.146 177.706 337.293 176.958C337.293 176.746 337.293 176.533 337.293 176.319C336.973 176.105 336.653 175.891 336.333 175.679C336.333 175.466 336.333 175.253 336.333 175.039C336.226 175.039 336.121 175.039 336.013 175.039C336.013 174.824 336.013 174.612 336.013 174.398C335.908 174.398 335.8 174.398 335.693 174.398C335.693 174.186 335.693 173.972 335.693 173.759C335.586 173.759 335.48 173.759 335.373 173.759C335.373 173.545 335.373 173.331 335.373 173.119C334.733 172.586 334.093 172.051 333.453 171.518C333.348 171.093 333.241 170.665 333.134 170.239C332.813 170.026 332.493 169.812 332.174 169.598C332.174 169.384 332.174 169.171 332.174 168.958C331.961 168.853 331.748 168.746 331.533 168.639C331.426 168.105 331.32 167.572 331.213 167.039C331 166.931 330.786 166.824 330.573 166.718C330.36 166.079 330.146 165.438 329.933 164.799C329.72 164.693 329.506 164.586 329.294 164.479C329.294 164.158 329.294 163.838 329.294 163.519C328.866 163.2 328.44 162.878 328.014 162.558C327.801 161.919 327.586 161.278 327.373 160.639C327.266 160.639 327.16 160.639 327.053 160.639C327.053 160.426 327.053 160.212 327.053 159.998C326.948 159.998 326.84 159.998 326.734 159.998C326.734 159.784 326.734 159.572 326.734 159.359C326.626 159.359 326.521 159.359 326.413 159.359C326.2 158.718 325.986 158.079 325.773 157.438C325.668 157.438 325.56 157.438 325.454 157.438C325.241 156.479 325.026 155.518 324.813 154.558C324.6 154.451 324.386 154.346 324.173 154.239C323.001 151.466 321.826 148.693 320.653 145.919C320.546 144.853 320.44 143.784 320.333 142.718C320.228 142.718 320.12 142.718 320.014 142.718C320.014 142.4 320.014 142.079 320.014 141.759C319.908 141.759 319.801 141.759 319.693 141.759C319.693 141.545 319.693 141.331 319.693 141.118C319.586 141.118 319.48 141.118 319.373 141.118C319.373 140.693 319.373 140.265 319.373 139.838C319.266 139.838 319.16 139.838 319.053 139.838C319.053 139.519 319.053 139.2 319.053 138.878C318.946 138.878 318.84 138.878 318.733 138.878C318.521 137.706 318.306 136.533 318.093 135.359C317.986 135.359 317.88 135.359 317.773 135.359C317.666 134.505 317.561 133.653 317.453 132.8C317.348 132.8 317.24 132.8 317.134 132.8C317.134 132.265 317.134 131.733 317.134 131.2C317.026 131.2 316.92 131.2 316.813 131.2C316.813 130.666 316.813 130.133 316.813 129.598C316.706 129.598 316.6 129.598 316.493 129.598C316.493 129.065 316.493 128.533 316.493 127.998C316.386 127.998 316.281 127.998 316.173 127.998C316.173 127.253 316.173 126.505 316.173 125.759C316.068 125.759 315.96 125.759 315.854 125.759C315.854 125.118 315.854 124.479 315.854 123.838C315.748 123.838 315.64 123.838 315.533 123.838C315.426 120.319 315.32 116.798 315.213 113.278C315.21 104.917 314.778 95.9433 316.813 89.5979C317.026 87.9995 317.24 86.3979 317.453 84.7992C317.561 84.7992 317.666 84.7992 317.773 84.7992C317.88 84.0526 317.986 83.3059 318.093 82.5592C318.2 82.5592 318.306 82.5592 318.414 82.5592C318.414 82.2392 318.414 81.9193 318.414 81.5979C318.521 81.5979 318.628 81.5979 318.733 81.5979C318.733 81.0659 318.733 80.5326 318.733 79.9992C318.84 79.9992 318.946 79.9992 319.053 79.9992C319.16 79.3592 319.266 78.7179 319.373 78.0779C319.48 78.0779 319.586 78.0779 319.693 78.0779C319.693 77.8659 319.693 77.6526 319.693 77.4379C319.801 77.4379 319.908 77.4379 320.014 77.4379C320.014 77.0126 320.014 76.5859 320.014 76.1579C320.12 76.1579 320.228 76.1579 320.333 76.1579C320.546 74.7726 320.76 73.3846 320.973 71.9979C321.081 71.9979 321.186 71.9979 321.294 71.9979C321.294 71.7859 321.294 71.5712 321.294 71.3592C321.4 71.3592 321.508 71.3592 321.613 71.3592C321.613 71.0392 321.613 70.7193 321.613 70.3992C321.72 70.3992 321.826 70.3992 321.933 70.3992C322.04 69.9726 322.146 69.5459 322.253 69.1192C322.36 69.1192 322.466 69.1192 322.574 69.1192C322.574 68.9046 322.574 68.6913 322.574 68.4792C322.68 68.4792 322.788 68.4792 322.893 68.4792C322.893 68.1592 322.893 67.8392 322.893 67.5179C323 67.5179 323.106 67.5179 323.213 67.5179C323.213 67.3059 323.213 67.0926 323.213 66.8779C323.32 66.8779 323.426 66.8779 323.533 66.8779C323.533 66.6659 323.533 66.4526 323.533 66.2379C323.64 66.2379 323.748 66.2379 323.854 66.2379C323.854 66.0259 323.854 65.8126 323.854 65.5979C323.961 65.5979 324.068 65.5979 324.173 65.5979C324.386 64.9579 324.6 64.3192 324.813 63.6792C324.92 63.6792 325.026 63.6792 325.134 63.6792C325.241 63.0392 325.346 62.3992 325.454 61.7592C325.56 61.7592 325.668 61.7592 325.773 61.7592C325.773 61.4379 325.773 61.1192 325.773 60.7979C325.986 60.6912 326.2 60.5859 326.413 60.4792C326.413 60.1592 326.413 59.8392 326.413 59.5179C326.521 59.5179 326.626 59.5179 326.734 59.5179C326.734 59.3046 326.734 59.0926 326.734 58.8779C326.84 58.8779 326.948 58.8779 327.053 58.8779C327.053 58.6659 327.053 58.4526 327.053 58.2379C327.16 58.2379 327.266 58.2379 327.373 58.2379C327.373 58.0259 327.373 57.8126 327.373 57.5979C327.48 57.5979 327.586 57.5979 327.693 57.5979C327.693 57.3846 327.693 57.1726 327.693 56.9579C328.12 56.6392 328.546 56.3192 328.973 55.9979C329.081 55.5712 329.188 55.1459 329.294 54.7193C329.401 54.7193 329.506 54.7193 329.614 54.7193C329.614 54.5059 329.614 54.2912 329.614 54.0779C329.72 54.0779 329.826 54.0779 329.933 54.0779C329.933 53.8659 329.933 53.6526 329.933 53.4379C330.04 53.4379 330.146 53.4379 330.253 53.4379C330.253 53.2259 330.253 53.0126 330.253 52.7979C330.468 52.6912 330.681 52.5859 330.894 52.4792C330.894 52.2646 330.894 52.0513 330.894 51.8392C331 51.8392 331.106 51.8392 331.213 51.8392C331.213 51.6246 331.213 51.4126 331.213 51.1992C331.32 51.1992 331.426 51.1992 331.533 51.1992C331.533 50.9859 331.533 50.7712 331.533 50.5579C331.64 50.5579 331.748 50.5579 331.853 50.5579C331.853 50.3459 331.853 50.1313 331.853 49.9193C332.066 49.8126 332.28 49.7059 332.493 49.5992C332.493 49.3846 332.493 49.1726 332.493 48.9579C332.813 48.7446 333.134 48.5326 333.453 48.3192C333.56 47.8926 333.666 47.4659 333.773 47.0392C334.414 46.5059 335.053 45.9726 335.693 45.4379C335.8 44.9059 335.908 44.3726 336.013 43.8392C336.226 43.7326 336.44 43.6246 336.653 43.5179C336.653 43.3046 336.653 43.0926 336.653 42.8779C336.973 42.6659 337.293 42.4526 337.613 42.2379C337.613 42.0259 337.613 41.8126 337.613 41.5979C338.468 40.8512 339.32 40.1046 340.173 39.3579C340.173 39.1459 340.173 38.9313 340.173 38.7193C340.493 38.5059 340.813 38.2912 341.134 38.0792C341.134 37.8659 341.134 37.6526 341.134 37.4379C341.453 37.2259 341.773 37.0126 342.093 36.7979C342.093 36.5859 342.093 36.3726 342.093 36.1592C343.48 34.8779 344.866 33.5979 346.253 32.3192C346.36 31.9992 346.468 31.6792 346.574 31.3579C346.893 31.1459 347.213 30.9313 347.533 30.7193C347.533 30.6113 347.533 30.5059 347.533 30.3992C347.748 30.3992 347.961 30.3992 348.173 30.3992C349.56 28.9046 350.948 27.4112 352.333 25.9179C352.546 25.9179 352.76 25.9179 352.973 25.9179C353.293 25.4912 353.614 25.0659 353.933 24.6393C354.146 24.6393 354.36 24.6393 354.573 24.6393C354.681 24.4259 354.786 24.2126 354.894 23.9993C355.106 23.9993 355.32 23.9993 355.533 23.9993C356.28 23.1459 357.026 22.2912 357.773 21.4379C357.986 21.4379 358.2 21.4379 358.414 21.4379C358.414 21.3326 358.414 21.2259 358.414 21.1192C358.628 21.1192 358.841 21.1192 359.054 21.1192C359.16 20.9046 359.266 20.6926 359.373 20.4792C359.586 20.4792 359.8 20.4792 360.013 20.4792C360.121 20.2646 360.226 20.0513 360.333 19.8392C360.76 19.7326 361.188 19.6246 361.613 19.5193C362.146 18.8779 362.68 18.2379 363.213 17.5979C363.64 17.4912 364.068 17.3859 364.493 17.2793C364.6 17.0659 364.706 16.8513 364.813 16.6393C365.026 16.6393 365.24 16.6393 365.453 16.6393C365.56 16.4259 365.666 16.2126 365.773 15.9993C365.986 15.9993 366.2 15.9993 366.414 15.9993C366.521 15.7859 366.628 15.5712 366.734 15.3579C367.266 15.2526 367.801 15.1459 368.333 15.0393C368.44 14.8259 368.546 14.6113 368.653 14.3992C369.294 14.1846 369.933 13.9726 370.574 13.7592C370.68 13.5446 370.786 13.3326 370.893 13.1192C371.32 13.0126 371.748 12.9046 372.174 12.7979C372.388 12.4792 372.6 12.1579 372.813 11.8392C373.026 11.8392 373.241 11.8392 373.454 11.8392C373.454 11.7326 373.454 11.6246 373.454 11.5193C374.093 11.3059 374.734 11.0926 375.373 10.8779C375.373 10.7726 375.373 10.6646 375.373 10.5592C375.693 10.5592 376.014 10.5592 376.333 10.5592C376.333 10.4526 376.333 10.3459 376.333 10.2379C376.76 10.1326 377.188 10.0259 377.614 9.91792C377.614 9.81259 377.614 9.70592 377.614 9.59792C378.253 9.49124 378.894 9.38593 379.533 9.27925C379.533 9.17258 379.533 9.0659 379.533 8.9579C379.748 8.9579 379.961 8.9579 380.173 8.9579C380.173 8.85123 380.173 8.74458 380.173 8.63925C380.386 8.63925 380.6 8.63925 380.813 8.63925C380.813 8.53258 380.813 8.42592 380.813 8.31924C381.026 8.31924 381.241 8.31924 381.453 8.31924C381.453 8.21124 381.453 8.10458 381.453 7.99925C382.093 7.78592 382.733 7.57124 383.373 7.35791C383.373 7.25258 383.373 7.14594 383.373 7.03926C383.693 7.03926 384.013 7.03926 384.333 7.03926C384.333 6.93126 384.333 6.82591 384.333 6.71791C384.653 6.71791 384.973 6.71791 385.294 6.71791C385.294 6.61258 385.294 6.50592 385.294 6.39925C385.72 6.29124 386.146 6.18457 386.574 6.07924C386.574 5.97124 386.574 5.86592 386.574 5.75925C386.893 5.75925 387.213 5.75925 387.533 5.75925C387.533 5.65257 387.533 5.54459 387.533 5.43925C387.746 5.43925 387.96 5.43925 388.173 5.43925C388.173 5.33258 388.173 5.22458 388.173 5.11925C389.773 4.90459 391.373 4.69258 392.973 4.47925C392.973 4.37257 392.973 4.26459 392.973 4.15791C393.294 4.15791 393.613 4.15791 393.933 4.15791C393.933 4.05124 393.933 3.94592 393.933 3.83925C394.146 3.83925 394.36 3.83925 394.574 3.83925C394.574 3.73257 394.574 3.62459 394.574 3.51926C395 3.51926 395.426 3.51926 395.853 3.51926C395.853 3.41125 395.853 3.30592 395.853 3.19925C396.174 3.19925 396.493 3.19925 396.813 3.19925C396.813 3.09258 396.813 2.98592 396.813 2.87791C397.773 2.77258 398.734 2.66457 399.693 2.55923C406.165 0.389908 414.1 0.00192261 422.733 -0.000747681C426.786 0.104584 430.841 0.211243 434.893 0.319244C434.893 0.425919 434.893 0.53125 434.893 0.639252C435.64 0.639252 436.386 0.639252 437.134 0.639252C438.764 1.11925 441.026 1.43391 442.573 1.91925C443.106 1.91925 443.64 1.91925 444.174 1.91925C444.174 2.02592 444.174 2.13258 444.174 2.23792C444.6 2.23792 445.026 2.23792 445.453 2.23792C445.453 2.34592 445.453 2.45256 445.453 2.55923C445.88 2.55923 446.306 2.55923 446.733 2.55923C446.733 2.66457 446.733 2.77258 446.733 2.87791C447.266 2.87791 447.801 2.87791 448.334 2.87791C448.334 2.98592 448.334 3.09258 448.334 3.19925C448.653 3.19925 448.973 3.19925 449.293 3.19925C449.293 3.30592 449.293 3.41125 449.293 3.51926C449.613 3.51926 449.933 3.51926 450.253 3.51926C450.253 3.62459 450.253 3.73257 450.253 3.83925C450.574 3.83925 450.893 3.83925 451.213 3.83925C451.213 3.94592 451.213 4.05124 451.213 4.15791C451.533 4.15791 451.854 4.15791 452.173 4.15791C452.173 4.26459 452.173 4.37257 452.173 4.47925C453.773 4.69258 455.373 4.90459 456.973 5.11925C456.973 5.22458 456.973 5.33258 456.973 5.43925C457.4 5.54459 457.826 5.65257 458.253 5.75925C458.253 5.86592 458.253 5.97124 458.253 6.07924C458.893 6.18457 459.533 6.29124 460.173 6.39925C460.173 6.50592 460.173 6.61258 460.173 6.71791C460.386 6.71791 460.6 6.71791 460.813 6.71791C460.813 6.82591 460.813 6.93126 460.813 7.03926C461.134 7.03926 461.454 7.03926 461.773 7.03926C461.88 7.25259 461.986 7.46458 462.093 7.67924C462.306 7.67924 462.521 7.67924 462.734 7.67924C462.734 7.78592 462.734 7.89258 462.734 7.99925C463.053 7.99925 463.373 7.99925 463.693 7.99925C463.801 8.21126 463.908 8.42592 464.014 8.63925C464.226 8.63925 464.44 8.63925 464.653 8.63925C464.653 8.74458 464.653 8.85123 464.653 8.9579C464.973 8.9579 465.294 8.9579 465.614 8.9579C465.614 9.0659 465.614 9.17258 465.614 9.27925C465.826 9.27925 466.04 9.27925 466.253 9.27925C466.253 9.38593 466.253 9.49124 466.253 9.59792C466.681 9.59792 467.106 9.59792 467.533 9.59792C467.533 9.70592 467.533 9.81259 467.533 9.91792C468.173 10.1313 468.813 10.3459 469.453 10.5592C469.453 10.6646 469.453 10.7726 469.453 10.8779C469.773 10.8779 470.093 10.8779 470.414 10.8779C470.414 10.9859 470.414 11.0926 470.414 11.1992C470.628 11.1992 470.841 11.1992 471.054 11.1992C471.054 11.3059 471.054 11.4113 471.054 11.5193C471.266 11.5193 471.48 11.5193 471.693 11.5193C471.8 11.7326 471.908 11.9459 472.013 12.1579C472.226 12.1579 472.44 12.1579 472.653 12.1579C472.866 12.4779 473.081 12.7979 473.293 13.1192C473.72 13.2246 474.146 13.3326 474.574 13.4379C474.68 13.6526 474.788 13.8659 474.893 14.0792C475.106 14.0792 475.32 14.0792 475.533 14.0792C475.533 14.1846 475.533 14.2912 475.533 14.3992C475.748 14.3992 475.96 14.3992 476.173 14.3992C476.173 14.5059 476.173 14.6112 476.173 14.7179C476.386 14.7179 476.6 14.7179 476.813 14.7179C476.813 14.8259 476.813 14.9313 476.813 15.0393C477.026 15.0393 477.24 15.0393 477.453 15.0393C477.453 15.1459 477.453 15.2526 477.453 15.3579C477.666 15.3579 477.88 15.3579 478.093 15.3579C478.093 15.4646 478.093 15.5712 478.093 15.6792C478.306 15.6792 478.521 15.6792 478.734 15.6792C478.734 15.7859 478.734 15.8926 478.734 15.9993C479.053 16.1046 479.373 16.2126 479.693 16.3192C479.801 16.5326 479.906 16.7446 480.014 16.9579C480.228 16.9579 480.441 16.9579 480.653 16.9579C480.76 17.1726 480.866 17.3859 480.973 17.5979C481.186 17.5979 481.4 17.5979 481.613 17.5979C481.826 17.9179 482.04 18.2379 482.253 18.5592C482.468 18.5592 482.68 18.5592 482.893 18.5592C483.106 18.8779 483.32 19.1992 483.533 19.5193C483.961 19.6246 484.386 19.7326 484.813 19.8392C485.026 20.1579 485.241 20.4792 485.454 20.7979C485.668 20.7979 485.88 20.7979 486.093 20.7979C486.093 20.9046 486.093 21.0126 486.093 21.1192C486.413 21.2259 486.734 21.3326 487.053 21.4379C487.16 21.6526 487.266 21.8659 487.373 22.0792C487.586 22.0792 487.801 22.0792 488.014 22.0792C488.12 22.3992 488.226 22.7192 488.333 23.0392C488.44 23.0392 488.546 23.0392 488.653 23.0392C488.866 23.3579 489.081 23.6792 489.293 23.9993C489.506 23.9993 489.72 23.9993 489.933 23.9993C490.04 24.2126 490.146 24.4259 490.253 24.6393C490.468 24.6393 490.681 24.6393 490.894 24.6393C491.106 24.9579 491.32 25.2793 491.533 25.5979C491.748 25.5979 491.961 25.5979 492.173 25.5979C493.026 26.5579 493.88 27.5192 494.733 28.4792C496.226 29.7592 497.72 31.0392 499.213 32.3192C499.213 32.5326 499.213 32.7446 499.213 32.9579C499.64 33.2792 500.068 33.5979 500.493 33.9193C500.493 34.1313 500.493 34.3459 500.493 34.5592C501.453 35.3046 502.414 36.0512 503.373 36.7979C503.373 37.0126 503.373 37.2259 503.373 37.4379C503.693 37.6526 504.014 37.8659 504.333 38.0792C504.333 38.2912 504.333 38.5059 504.333 38.7193C504.44 38.7193 504.546 38.7193 504.653 38.7193C504.76 39.0393 504.866 39.3579 504.973 39.6792C505.186 39.7859 505.4 39.8926 505.613 39.9979C505.613 40.2112 505.613 40.4259 505.613 40.6393C505.826 40.7446 506.04 40.8512 506.253 40.9579C506.253 41.0659 506.253 41.1726 506.253 41.2792C506.468 41.2792 506.681 41.2792 506.893 41.2792C507 41.5979 507.106 41.9193 507.213 42.2379C507.426 42.3459 507.64 42.4526 507.854 42.5579C507.854 42.7726 507.854 42.9859 507.854 43.1992C508.28 43.5179 508.706 43.8392 509.133 44.1592C509.133 44.3726 509.133 44.5859 509.133 44.7979C509.241 44.7979 509.346 44.7979 509.454 44.7979C509.454 45.0126 509.454 45.2259 509.454 45.4379C509.56 45.4379 509.666 45.4379 509.773 45.4379C509.773 45.6526 509.773 45.8646 509.773 46.0792C509.88 46.0792 509.986 46.0792 510.093 46.0792C510.093 46.2912 510.093 46.5059 510.093 46.7193C510.521 47.0393 510.946 47.3579 511.373 47.6792C511.373 47.8926 511.373 48.1059 511.373 48.3192C511.586 48.4259 511.801 48.5326 512.013 48.6393C512.013 48.9579 512.013 49.2792 512.013 49.5992C512.44 49.9193 512.866 50.2379 513.293 50.5579C513.293 50.7712 513.293 50.9859 513.293 51.1992C513.506 51.3046 513.72 51.4126 513.933 51.5179C513.933 51.7326 513.933 51.9459 513.933 52.1592C514.04 52.1592 514.146 52.1592 514.253 52.1592C514.253 52.3726 514.253 52.5859 514.253 52.7979C514.36 52.7979 514.468 52.7979 514.573 52.7979C514.573 53.0126 514.573 53.2259 514.573 53.4379C514.681 53.4379 514.786 53.4379 514.893 53.4379C514.893 53.6526 514.893 53.8659 514.893 54.0779C515 54.0779 515.106 54.0779 515.213 54.0779C515.213 54.2912 515.213 54.5059 515.213 54.7193C515.32 54.7193 515.426 54.7193 515.533 54.7193C515.533 54.9313 515.533 55.1459 515.533 55.3592C515.64 55.3592 515.748 55.3592 515.854 55.3592C515.854 55.5712 515.854 55.7859 515.854 55.9979C515.961 55.9979 516.066 55.9979 516.173 55.9979C516.28 56.4259 516.386 56.8526 516.493 57.2792C516.706 57.3846 516.92 57.4912 517.134 57.5979C517.24 57.9193 517.348 58.2379 517.453 58.5579C517.561 58.5579 517.666 58.5579 517.774 58.5579C518.093 59.5179 518.414 60.4792 518.733 61.4379C518.946 61.5446 519.16 61.6526 519.373 61.7592C519.373 61.9726 519.373 62.1846 519.373 62.3992C519.48 62.3992 519.586 62.3992 519.693 62.3992C519.693 62.6126 519.693 62.8246 519.693 63.0392C519.8 63.0392 519.908 63.0392 520.013 63.0392C520.226 64.2112 520.44 65.3859 520.653 66.5592C520.76 66.5592 520.866 66.5592 520.973 66.5592C520.973 66.7712 520.973 66.9859 520.973 67.1992C521.188 67.3059 521.4 67.4126 521.613 67.5179C521.826 68.1579 522.04 68.7992 522.253 69.4379C522.36 69.4379 522.468 69.4379 522.574 69.4379C522.574 69.8659 522.574 70.2926 522.574 70.7193C522.68 70.7193 522.788 70.7193 522.893 70.7193C523.001 71.1459 523.106 71.5712 523.213 71.9979C523.32 71.9979 523.426 71.9979 523.533 71.9979C523.533 72.3192 523.533 72.6392 523.533 72.9579C523.64 72.9579 523.748 72.9579 523.854 72.9579C523.854 73.1726 523.854 73.3846 523.854 73.5979C523.96 73.5979 524.068 73.5979 524.173 73.5979C524.28 74.2379 524.386 74.8779 524.493 75.5179C524.6 75.5179 524.706 75.5179 524.813 75.5179C524.813 75.9446 524.813 76.3726 524.813 76.7992C524.92 76.7992 525.026 76.7992 525.134 76.7992C525.134 77.1192 525.134 77.4379 525.134 77.7592C525.241 77.7592 525.348 77.7592 525.453 77.7592C525.453 78.3992 525.453 79.0392 525.453 79.6792C525.56 79.6792 525.666 79.6792 525.773 79.6792C525.773 80.3192 525.773 80.9579 525.773 81.5979C525.88 81.5979 525.986 81.5979 526.093 81.5979C526.093 81.9193 526.093 82.2392 526.093 82.5592C526.2 82.5592 526.306 82.5592 526.414 82.5592C526.734 84.4792 527.053 86.3995 527.373 88.3192C527.48 88.3192 527.586 88.3192 527.693 88.3192C527.693 88.7458 527.693 89.1725 527.693 89.5979C527.801 89.5979 527.906 89.5979 528.014 89.5979C528.014 90.0244 528.014 90.4526 528.014 90.8782C528.12 90.8782 528.228 90.8782 528.333 90.8782C528.333 91.7328 528.333 92.5859 528.333 93.438C528.44 93.438 528.546 93.438 528.653 93.438C528.76 95.2526 528.866 97.0662 528.973 98.8782C529.081 98.8782 529.186 98.8782 529.294 98.8782C529.294 100.693 529.294 102.506 529.294 104.319C529.4 104.319 529.506 104.319 529.613 104.319C530.076 105.946 529.637 113.345 529.294 114.559C529.186 117.438 529.081 120.319 528.973 123.2C528.866 123.2 528.76 123.2 528.653 123.2C528.653 123.945 528.653 124.693 528.653 125.438C528.546 125.438 528.44 125.438 528.333 125.438C528.333 126.293 528.333 127.146 528.333 127.998C527.56 130.579 526.966 133.865 526.093 136.319C525.666 138.771 525.241 141.226 524.813 143.679C524.706 143.679 524.6 143.679 524.493 143.679C524.386 144.319 524.28 144.959 524.173 145.598C524.068 145.598 523.96 145.598 523.854 145.598C523.748 146.026 523.64 146.451 523.533 146.878C523.426 146.878 523.32 146.878 523.213 146.878C523.213 147.2 523.213 147.519 523.213 147.838C523.106 147.838 523.001 147.838 522.893 147.838C522.893 148.051 522.893 148.265 522.893 148.479C522.788 148.479 522.68 148.479 522.574 148.479C522.574 148.799 522.574 149.119 522.574 149.438C522.468 149.438 522.36 149.438 522.253 149.438C522.253 149.759 522.253 150.079 522.253 150.398C522.146 150.398 522.04 150.398 521.933 150.398C521.933 150.612 521.933 150.824 521.933 151.039C521.826 151.039 521.72 151.039 521.613 151.039C521.613 151.253 521.613 151.466 521.613 151.679C521.508 151.679 521.4 151.679 521.294 151.679C521.294 151.891 521.294 152.105 521.294 152.319C521.081 152.426 520.866 152.533 520.653 152.639C520.44 153.919 520.226 155.2 520.013 156.479C519.8 156.586 519.586 156.693 519.373 156.8C519.266 157.119 519.16 157.438 519.053 157.759C518.946 157.759 518.841 157.759 518.733 157.759C518.414 158.718 518.093 159.679 517.774 160.639C517.561 160.746 517.348 160.853 517.134 160.958C517.134 161.171 517.134 161.384 517.134 161.598C516.92 161.706 516.706 161.812 516.493 161.919C516.493 162.133 516.493 162.346 516.493 162.558C516.28 162.665 516.066 162.771 515.854 162.878C515.854 163.2 515.854 163.519 515.854 163.838C515.748 163.838 515.64 163.838 515.533 163.838C515.533 164.051 515.533 164.265 515.533 164.479C515.426 164.479 515.32 164.479 515.213 164.479C515.213 164.693 515.213 164.906 515.213 165.119C515.106 165.119 515 165.119 514.893 165.119C514.893 165.331 514.893 165.545 514.893 165.759C514.786 165.759 514.681 165.759 514.573 165.759C514.573 165.972 514.573 166.186 514.573 166.398C514.468 166.398 514.36 166.398 514.253 166.398C514.146 166.824 514.04 167.253 513.933 167.679C513.614 167.891 513.293 168.105 512.973 168.319C512.866 168.639 512.76 168.958 512.653 169.278C512.44 169.384 512.226 169.491 512.013 169.598C512.013 169.919 512.013 170.239 512.013 170.559C511.801 170.665 511.586 170.771 511.373 170.878C511.373 171.093 511.373 171.306 511.373 171.518C510.946 171.838 510.521 172.158 510.093 172.479C509.88 173.119 509.666 173.759 509.454 174.398C509.241 174.505 509.026 174.612 508.813 174.718C508.813 174.931 508.813 175.146 508.813 175.359C508.493 175.572 508.174 175.784 507.854 175.998C507.854 176.212 507.854 176.426 507.854 176.639C507.64 176.746 507.426 176.853 507.213 176.958C507.213 177.171 507.213 177.384 507.213 177.598C506.786 177.812 506.36 178.026 505.933 178.239C505.933 178.451 505.933 178.665 505.933 178.878C505.613 179.093 505.294 179.306 504.973 179.519C503.936 180.983 503.414 183.165 501.453 183.679Z" fill="black"/>
</svg>
